<svg width="120" height="120" viewBox="0 0 120 120" fill="none" xmlns="http://www.w3.org/2000/svg">
<rect width="120" height="120" rx="32" fill="url(#paint0_linear_202_756)"/>
<path d="M45.9842 57.5407C50.72 61.4483 55.454 65.3539 60.1899 69.2615C70.1017 58.9808 80.0135 48.7001 89.9254 38.4194V35.333C88.584 35.2707 86.7987 35.1423 84.7092 34.8582C83.0215 34.6305 78.6416 33.963 73.213 32.1279C69.7094 30.9428 65.1343 29.0572 60.1305 26C57.0824 27.802 53.3281 29.6896 48.8888 31.2775C41.5965 33.8871 30.0008 34.9477 30.0008 34.9477C29.9951 45.2051 29.9702 64.595 31.8129 69.3238C35.5767 85.0747 47.0557 93.9154 60.3181 98C75.1284 94.4602 89.3705 80.0871 90 61.3607" stroke="white" stroke-width="6" stroke-miterlimit="10"/>
<defs>
<linearGradient id="paint0_linear_202_756" x1="60" y1="145.909" x2="60" y2="-60" gradientUnits="userSpaceOnUse">
<stop stop-color="#2956B2"/>
<stop offset="1" stop-color="#44B6F4"/>
</linearGradient>
</defs>
</svg>
