<svg width="2939" height="778" viewBox="0 0 2939 778" fill="none" xmlns="http://www.w3.org/2000/svg">
<path d="M190.935 345.732C238.095 383.994 285.236 422.236 332.396 460.498C431.099 359.832 529.801 259.167 628.504 158.502V128.281C615.147 127.671 597.369 126.414 576.561 123.632C559.755 121.403 516.139 114.867 462.081 96.8983C427.193 85.2941 381.633 66.8302 331.805 36.8955C301.451 54.54 264.066 73.023 219.86 88.5715C147.243 114.124 31.7721 124.508 31.7721 124.508C31.7149 224.945 31.4672 414.805 49.8168 461.107C87.2971 615.335 201.605 701.9 333.673 741.895C481.155 707.235 622.978 566.498 629.247 383.136" stroke="url(#paint0_radial_2082_740)" stroke-width="63.5279" stroke-miterlimit="10"/>
<path d="M190.934 345.732C238.094 383.994 285.235 422.236 332.395 460.498C431.098 359.832 529.801 259.167 628.504 158.502V128.281C615.146 127.671 597.368 126.414 576.561 123.632C559.755 121.403 516.139 114.867 462.081 96.8983C427.192 85.2941 381.632 66.8302 331.805 36.8955C301.451 54.54 264.066 73.023 219.859 88.5715C147.242 114.124 60.5869 121.396 60.5869 121.396" stroke="url(#paint1_radial_2082_740)" stroke-width="63.5279" stroke-miterlimit="10"/>
<path d="M850.934 582.311L952.569 195.675H1079.61L1181.24 582.311H1106.13L1085.14 497.256H947.054L926.061 582.311H850.95H850.934ZM964.168 429.866H1068.01L1021.06 241.521H1011.12L964.168 429.866ZM1317.54 586.74C1296.18 586.74 1277.41 581.96 1261.2 572.383C1245.37 562.439 1233.04 548.817 1224.2 531.518C1215.36 514.22 1210.94 494.331 1210.94 471.868V308.375H1280.54V466.352C1280.54 486.977 1285.5 502.437 1295.45 512.749C1305.76 523.061 1320.3 528.209 1339.09 528.209C1360.45 528.209 1377.01 521.206 1388.79 507.217C1400.58 492.86 1406.48 472.971 1406.48 447.566V308.375H1476.07V582.328H1407.58V546.427H1397.64C1393.22 555.636 1384.93 564.662 1372.78 573.486C1360.63 582.311 1342.21 586.74 1317.54 586.74ZM1641.89 582.311C1623.84 582.311 1609.11 576.796 1597.7 565.748C1586.65 554.333 1581.13 539.24 1581.13 520.454V365.803H1512.64V308.359H1581.13V223.303H1650.73V308.359H1725.84V365.803H1650.73V508.303C1650.73 519.351 1655.88 524.866 1666.19 524.866H1719.22V582.311H1641.89ZM1892.91 590.05C1865.67 590.05 1841.18 584.534 1819.45 573.486C1797.73 562.439 1780.61 546.427 1768.09 525.435C1755.57 504.443 1749.31 479.222 1749.31 449.772V440.931C1749.31 411.465 1755.57 386.244 1768.09 365.268C1780.61 344.276 1797.74 328.264 1819.45 317.217C1841.18 306.169 1865.67 300.654 1892.91 300.654C1920.15 300.654 1944.64 306.169 1966.37 317.217C1988.09 328.264 2005.21 344.276 2017.73 365.268C2030.25 386.261 2036.51 411.481 2036.51 440.931V449.772C2036.51 479.238 2030.25 504.459 2017.73 525.435C2005.21 546.427 1988.08 562.439 1966.37 573.486C1944.64 584.534 1920.15 590.05 1892.91 590.05ZM1892.91 528.192C1914.27 528.192 1931.94 521.373 1945.94 507.752C1959.93 493.762 1966.93 473.873 1966.93 448.101V442.585C1966.93 416.813 1959.93 397.108 1945.94 383.486C1932.32 369.497 1914.64 362.494 1892.91 362.494C1871.18 362.494 1853.88 369.497 1839.88 383.486C1825.89 397.108 1818.89 416.813 1818.89 442.585V448.101C1818.89 473.873 1825.89 493.762 1839.88 507.752C1853.87 521.373 1871.55 528.192 1892.91 528.192ZM2084.18 582.311V308.359H2152.67V339.295H2162.62C2166.66 328.248 2173.3 320.142 2182.51 314.994C2192.08 309.846 2203.13 307.255 2215.65 307.255H2248.79V369.112H2214.55C2196.86 369.112 2182.32 373.893 2170.91 383.469C2159.49 392.679 2153.79 407.036 2153.79 426.557V582.311H2084.2H2084.18ZM2286.62 582.311V308.359H2356.21V582.311H2286.62ZM2321.4 276.318C2308.88 276.318 2298.2 272.274 2289.36 264.168C2280.88 256.062 2276.65 245.382 2276.65 232.128C2276.65 218.874 2280.88 208.194 2289.36 200.088C2298.2 191.982 2308.88 187.937 2321.4 187.937C2333.92 187.937 2344.96 191.982 2353.44 200.088C2361.91 208.194 2366.14 218.874 2366.14 232.128C2366.14 245.382 2361.91 256.062 2353.44 264.168C2344.96 272.274 2334.28 276.318 2321.4 276.318ZM2406.8 582.311V499.462L2557.04 374.628V365.786H2412.34V308.342H2633.27V391.191L2483.03 516.025V524.866H2637.68V582.311H2406.8ZM2806.04 590.05C2778.8 590.05 2754.68 584.35 2733.69 572.935C2713.06 561.152 2696.87 544.772 2685.08 523.78C2673.67 502.42 2667.97 477.383 2667.97 448.669V442.034C2667.97 413.32 2673.67 388.45 2685.08 367.475C2696.5 346.115 2712.51 329.735 2733.14 318.32C2753.76 306.537 2777.69 300.637 2804.94 300.637C2832.18 300.637 2855.2 306.721 2875.08 318.871C2894.97 330.654 2910.43 347.218 2921.48 368.578C2932.53 389.57 2938.04 414.055 2938.04 442.034V465.784H2738.65C2739.39 484.57 2746.39 499.846 2759.64 511.629C2772.9 523.412 2789.11 529.312 2808.25 529.312C2827.38 529.312 2842.13 525.084 2851.33 516.61C2860.54 508.136 2867.53 498.743 2872.33 488.448L2929.22 518.281C2924.07 527.858 2916.52 538.354 2906.57 549.77C2897 560.818 2884.11 570.394 2867.91 578.484C2851.72 586.222 2831.09 590.083 2806.06 590.083L2806.04 590.05ZM2739.2 413.855H2867.35C2865.88 398.027 2859.42 385.325 2848.01 375.748C2836.96 366.171 2822.42 361.391 2804.37 361.391C2786.32 361.391 2770.67 366.171 2759.63 375.748C2748.58 385.325 2741.76 398.027 2739.19 413.855H2739.2Z" fill="white"/>
<path d="M1938.67 681.104H1928.34V776.388H1938.67V681.104Z" fill="white"/>
<path d="M2057.54 681.104V776.388H2049.01L1986.27 699.087V776.388H1975.96V681.104H1984.46L2047.36 758.421V681.104H2057.54Z" fill="white"/>
<path d="M2180.31 704.035C2175.93 696.831 2169.55 690.982 2161.91 687.171C2153.44 683.009 2144.04 680.92 2134.57 681.104H2094.82V776.388H2134.57C2144.04 776.572 2153.44 774.5 2161.91 770.338C2169.57 766.527 2175.95 760.677 2180.31 753.457C2184.76 745.953 2187.03 737.412 2186.88 728.754C2187.05 720.08 2184.77 711.539 2180.31 704.035ZM2171.35 748.961C2167.81 754.828 2162.63 759.591 2156.43 762.7C2149.49 766.143 2141.79 767.848 2134 767.68H2105.12V689.828H2134C2141.77 689.661 2149.48 691.366 2156.43 694.792C2162.65 697.901 2167.81 702.665 2171.37 708.531C2174.98 714.682 2176.8 721.668 2176.64 728.754C2176.79 735.841 2174.95 742.811 2171.34 748.961H2171.35Z" fill="white"/>
<path d="M2234.49 681.104H2224.16V776.388H2234.49V681.104Z" fill="white"/>
<path d="M2349.16 728.756H2359.05V765.041C2354.32 769.053 2348.82 772.095 2342.87 774.033C2336.55 776.139 2329.9 777.209 2323.23 777.192C2314.04 777.326 2304.96 775.17 2296.87 770.941C2289.22 766.93 2282.85 760.93 2278.46 753.626C2273.96 746.088 2271.64 737.514 2271.77 728.79C2271.65 720.065 2273.96 711.491 2278.46 703.953C2282.84 696.616 2289.22 690.582 2296.87 686.538C2305.01 682.292 2314.14 680.136 2323.37 680.287C2330.37 680.203 2337.31 681.39 2343.87 683.763C2349.89 685.919 2355.29 689.446 2359.65 694.042L2353.23 700.427C2345.51 693.006 2335.7 689.295 2323.78 689.295C2316.31 689.178 2308.94 690.95 2302.37 694.41C2296.14 697.686 2290.94 702.583 2287.38 708.549C2283.74 714.683 2281.85 721.67 2281.95 728.773C2281.85 735.843 2283.72 742.812 2287.38 748.913C2290.96 754.863 2296.12 759.743 2302.31 763.069C2308.84 766.579 2316.2 768.351 2323.65 768.25C2333.7 768.25 2342.2 765.794 2349.17 760.896V728.79L2349.16 728.756Z" fill="white"/>
<path d="M2492.74 703.902C2488.37 696.582 2482.03 690.582 2474.39 686.52C2457.95 678.163 2438.36 678.197 2421.95 686.604C2414.29 690.632 2407.92 696.632 2403.54 703.952C2399.08 711.473 2396.79 720.048 2396.93 728.739C2396.79 737.43 2399.08 745.987 2403.54 753.508C2407.92 760.829 2414.29 766.846 2421.95 770.857V770.89C2438.36 779.297 2457.95 779.331 2474.39 770.957C2482.03 766.912 2488.37 760.912 2492.74 753.608C2497.26 746.071 2499.56 737.463 2499.45 728.739C2499.56 720.014 2497.26 711.423 2492.74 703.885V703.902ZM2483.82 748.962C2480.38 754.912 2475.3 759.809 2469.16 763.118C2456.06 769.904 2440.35 769.904 2427.24 763.118C2421.08 759.826 2415.96 754.912 2412.47 748.962C2405.3 736.393 2405.3 721.117 2412.47 708.549C2415.96 702.599 2421.08 697.701 2427.24 694.409C2440.35 687.606 2456.06 687.606 2469.16 694.409C2475.3 697.701 2480.36 702.615 2483.82 708.565C2490.87 721.151 2490.87 736.393 2483.82 748.979V748.962Z" fill="white"/>
<path d="M2678.65 681.104V776.388H2668.5V732.398H2607.41V776.388H2597.09V681.104H2607.41V723.573H2668.5V681.104H2678.65Z" fill="white"/>
<path d="M2726.25 681.104H2715.94V776.388H2726.25V681.104Z" fill="white"/>
<path d="M2845.95 681.104L2802.71 776.388H2792.57L2749.35 681.104H2760.49L2797.86 763.869L2835.54 681.104H2845.95Z" fill="white"/>
<path d="M2938.04 767.68V776.388H2869V681.104H2935.95V689.828H2879.31V723.723H2929.8V732.297H2879.31V767.68H2938.04Z" fill="white"/>
<defs>
<radialGradient id="paint0_radial_2082_740" cx="0" cy="0" r="1" gradientUnits="userSpaceOnUse" gradientTransform="translate(330.587 235.396) rotate(86.7795) scale(507.301 693.036)">
<stop offset="0.056683" stop-color="#01A6E6"/>
<stop offset="0.899994" stop-color="#0056DB"/>
</radialGradient>
<radialGradient id="paint1_radial_2082_740" cx="0" cy="0" r="1" gradientUnits="userSpaceOnUse" gradientTransform="translate(339.587 263.396) rotate(93.5035) scale(441.826 603.588)">
<stop offset="0.229354" stop-color="#01A6E6"/>
<stop offset="0.899994" stop-color="#0056DB"/>
</radialGradient>
</defs>
</svg>
