<svg width="381" height="101" viewBox="0 0 381 101" fill="none" xmlns="http://www.w3.org/2000/svg">
<g clip-path="url(#clip0_125_1832)">
<path d="M110.033 76.27L123.228 25.9432H139.722L152.917 76.27H143.164L140.44 65.1968H122.513L119.786 76.27H110.033ZM124.734 56.4271H138.216L132.122 31.9108H130.831L124.737 56.4271H124.734ZM170.612 76.8471C167.839 76.8471 165.402 76.2234 163.298 74.9783C161.243 73.6841 159.641 71.911 158.492 69.659C157.343 67.407 156.77 64.8186 156.77 61.8937V40.6117H165.806V61.1742C165.806 63.8584 166.45 65.8721 167.741 67.213C169.079 68.5539 170.967 69.2268 173.407 69.2268C176.179 69.2268 178.33 68.3157 179.861 66.4959C181.392 64.627 182.156 62.0386 182.156 58.7306V40.6117H191.192V76.2725H182.301V71.5991H181.01C180.437 72.7975 179.361 73.9714 177.784 75.1232C176.206 76.2725 173.816 76.8496 170.612 76.8496V76.8471ZM212.72 76.27C210.378 76.27 208.465 75.5505 206.983 74.1138C205.548 72.6281 204.833 70.6634 204.833 68.2174V48.0872H195.941V40.6092H204.833V29.536H213.869V40.6092H223.622V48.0872H213.869V66.6359C213.869 68.075 214.537 68.7921 215.877 68.7921H222.763V76.27H212.722H212.72ZM245.312 77.2769C241.775 77.2769 238.596 76.5574 235.774 75.1207C232.952 73.6816 230.731 71.5966 229.104 68.8658C227.478 66.1349 226.667 62.8515 226.667 59.0155V57.8662C226.667 54.0327 227.48 50.7493 229.104 48.016C230.731 45.2851 232.952 43.1977 235.774 41.761C238.596 40.3219 241.773 39.6048 245.312 39.6048C248.851 39.6048 252.028 40.3244 254.85 41.761C257.672 43.2001 259.893 45.2851 261.52 48.016C263.146 50.7468 263.957 54.0302 263.957 57.8662V59.0155C263.957 62.849 263.144 66.1325 261.52 68.8658C259.893 71.5966 257.672 73.6841 254.85 75.1207C252.028 76.5598 248.851 77.2769 245.312 77.2769ZM245.312 69.2243C248.085 69.2243 250.38 68.3378 252.197 66.5647C254.015 64.7425 254.921 62.154 254.921 58.7994V58.0799C254.921 54.7252 254.012 52.1614 252.197 50.3858C250.429 48.5636 248.134 47.655 245.312 47.655C242.49 47.655 240.244 48.5661 238.427 50.3858C236.609 52.1589 235.703 54.7228 235.703 58.0799V58.7994C235.703 62.154 236.612 64.7425 238.427 66.5647C240.244 68.3378 242.539 69.2243 245.312 69.2243ZM270.144 76.27V40.6092H279.036V44.6343H280.326C280.853 43.1952 281.713 42.1417 282.908 41.4712C284.15 40.8008 285.585 40.4644 287.212 40.4644H291.515V48.5169H287.07C284.775 48.5169 282.886 49.1407 281.404 50.3858C279.922 51.5842 279.18 53.4531 279.18 55.9949V76.27H270.144ZM296.424 76.27V40.6092H305.46V76.27H296.424ZM300.943 36.4393C299.317 36.4393 297.93 35.9113 296.784 34.8577C295.684 33.8042 295.136 32.4142 295.136 30.6878C295.136 28.9613 295.684 27.5714 296.784 26.5178C297.93 25.4643 299.317 24.9363 300.943 24.9363C302.57 24.9363 304.002 25.4643 305.102 26.5178C306.202 27.5714 306.751 28.9613 306.751 30.6878C306.751 32.4142 306.202 33.8042 305.102 34.8577C304.002 35.9113 302.616 36.4393 300.943 36.4393ZM312.032 76.27V65.4866L331.536 49.239V48.0896H312.749V40.6117H341.432V51.3951L321.927 67.6428V68.7921H342.005V76.27H312.032ZM363.861 77.2769C360.324 77.2769 357.192 76.5328 354.468 75.047C351.791 73.5121 349.687 71.3805 348.158 68.6472C346.676 65.8672 345.934 62.6084 345.934 58.8682V58.0062C345.934 54.2684 346.676 51.0317 348.158 48.3008C349.64 45.5209 351.72 43.3868 354.397 41.901C357.074 40.3661 360.182 39.5999 363.719 39.5999C367.256 39.5999 370.245 40.3907 372.826 41.9722C375.408 43.5071 377.416 45.6633 378.849 48.4433C380.285 51.1741 381 54.3618 381 58.0062V61.098H355.112C355.208 63.5416 356.116 65.5308 357.836 67.0657C359.558 68.6005 361.659 69.3667 364.146 69.3667C366.632 69.3667 368.545 68.8167 369.74 67.714C370.935 66.6113 371.844 65.3883 372.466 64.0475L379.851 67.9301C379.183 69.1752 378.203 70.5431 376.912 72.0288C375.67 73.4679 373.995 74.713 371.893 75.7666C369.789 76.7735 367.112 77.2769 363.861 77.2769ZM355.186 54.3421H371.822C371.631 52.2817 370.793 50.6265 369.311 49.3814C367.876 48.1363 365.99 47.5125 363.646 47.5125C361.302 47.5125 359.271 48.1363 357.838 49.3814C356.403 50.6265 355.519 52.2817 355.186 54.3421Z" fill="white"/>
<path d="M24.5612 45.1321C30.6249 50.0516 36.6862 54.9688 42.7499 59.8884C55.4409 46.9451 68.1318 34.0018 80.8228 21.0585V17.1728C79.1053 17.0944 76.8195 16.9327 74.1441 16.575C71.9832 16.2883 66.3752 15.448 59.4245 13.1376C54.9386 11.6456 49.0807 9.27154 42.6739 5.42261C38.7711 7.6913 33.9642 10.0678 28.2803 12.067C18.9433 15.3524 4.09639 16.6877 4.09639 16.6877C4.08904 29.6016 4.05719 54.0133 6.41653 59.9668C11.2357 79.797 25.9332 90.9273 42.9141 96.0698C61.877 91.6133 80.1123 73.5177 80.9183 49.9414" stroke="url(#paint0_radial_125_1832)" stroke-width="8.16827" stroke-miterlimit="10"/>
</g>
<defs>
<radialGradient id="paint0_radial_125_1832" cx="0" cy="0" r="1" gradientUnits="userSpaceOnUse" gradientTransform="translate(46 30.5) rotate(67.9993) scale(53.3877 41.5777)">
<stop stop-color="#01A6E6"/>
<stop offset="1" stop-color="#0056DB"/>
</radialGradient>
<clipPath id="clip0_125_1832">
<rect width="381" height="101" fill="white"/>
</clipPath>
</defs>
</svg>
